<svg id="Layer_1" data-name="Layer 1" xmlns="http://www.w3.org/2000/svg" viewBox="0 0 512 512"><title>whatsapp</title><path d="M497.87,1.19h-245C111.69,1.19,0,110.34,0,251.52v245c0,5.89,2,14.29,7.87,14.29h245C394.07,510.82,512,392.73,512,251.52V6.52C512,.63,503.76,1.19,497.87,1.19Z" fill="#00c451"/><path id="WhatsApp" d="M414.57,249.64c0,86-70.24,155.67-156.88,155.67a157.18,157.18,0,0,1-75.83-19.37L95,413.53,123.31,330a154.07,154.07,0,0,1-22.51-80.38C100.8,163.66,171,94,257.69,94S414.57,163.66,414.57,249.64ZM257.69,118.76c-72.74,0-131.9,58.71-131.9,130.88a129.51,129.51,0,0,0,25.12,76.73L134.44,375l50.69-16.11a131.83,131.83,0,0,0,72.56,21.65c72.73,0,131.9-58.71,131.9-130.87S330.41,118.76,257.69,118.76ZM336.9,285.48c-1-1.59-3.53-2.54-7.37-4.45s-22.76-11.14-26.28-12.41-6.1-1.91-8.66,1.9-9.93,12.41-12.18,15-4.48,2.87-8.33,1-16.24-5.93-30.93-18.94c-11.43-10.11-19.15-22.6-21.39-26.42s-.24-5.88,1.69-7.78c1.73-1.72,3.85-4.46,5.77-6.68a26,26,0,0,0,3.84-6.37,7,7,0,0,0-.32-6.69c-1-1.9-8.66-20.68-11.86-28.32s-6.4-6.36-8.65-6.36-4.81-.32-7.37-.32a14.19,14.19,0,0,0-10.25,4.77c-3.52,3.82-13.45,13-13.45,31.82s13.78,36.92,15.7,39.46,26.59,42.32,65.69,57.6,39.11,10.18,46.16,9.54,22.74-9.22,26-18.14,3.2-16.55,2.25-18.14Z" fill="#fff"/></svg>